<?xml version="1.0" encoding="UTF-8"?>
<svg version="1.1" xmlns="http://www.w3.org/2000/svg" width="1000" height="116">
<path d="M0 0 C1.68535825 0.00186993 3.37071706 0.00329111 5.05607605 0.00428772 C9.4470068 0.00806768 13.83790336 0.01785819 18.2288208 0.0289917 C22.72741229 0.03930418 27.22600942 0.04380621 31.72460938 0.04882812 C40.51824468 0.05948549 49.31185244 0.07650611 58.10546875 0.09765625 C55.13107335 9.68374065 48.21401975 15.32608735 39.48046875 19.97265625 C17.52134586 29.99696047 -7.51108535 29.91125753 -31.17578125 28.44140625 C-33.5065034 28.3045679 -35.8372328 28.16785313 -38.16796875 28.03125 C-41.76998867 27.81606566 -45.37188196 27.59903745 -48.97363281 27.37939453 C-60.66333976 26.67107346 -72.34019471 25.96532771 -84.0546875 25.9296875 C-84.8278833 25.92541748 -85.6010791 25.92114746 -86.39770508 25.91674805 C-107.79368127 26.03461922 -130.35513445 34.10981211 -145.89453125 49.09765625 C-149.97369952 56.1485263 -150.22229634 64.36289477 -151.1796875 72.31835938 C-152.67101764 83.28664643 -156.13190037 92.02290919 -164.89453125 99.09765625 C-171.89960739 104.09765625 -171.89960739 104.09765625 -174.89453125 104.09765625 C-174.77408447 103.38222656 -174.6536377 102.66679688 -174.52954102 101.9296875 C-173.25498893 94.32541338 -172.02177757 86.71565172 -170.83203125 79.09765625 C-170.65865234 78.01226562 -170.48527344 76.926875 -170.30664062 75.80859375 C-169.30866227 69.40011974 -168.5813641 63.05188693 -168.18554688 56.5769043 C-167.28490038 48.90403087 -159.55781119 43.63279278 -153.89453125 39.09765625 C-118.88741772 13.53760741 -73.22089483 4.92990205 -30.89453125 1.09765625 C-29.99435776 1.01054886 -29.09418427 0.92344147 -28.16673279 0.83369446 C-18.7659837 0.00363619 -9.42740201 -0.03112897 0 0 Z " fill="#FFFFFF" transform="translate(940.89453125,-0.09765625)"/>
<path d="M0 0 C0 3.9909563 -1.37330687 5.06402048 -4 8 C-17.7477529 20.5176908 -34.53998058 27.82324426 -53 30 C-54.37091797 30.16435547 -54.37091797 30.16435547 -55.76953125 30.33203125 C-73.23070157 32.0851608 -90.72338781 30.48482186 -108.1640625 29.28173828 C-134.31678072 27.49306757 -157.38719893 27.00683265 -182 37 C-180.67477247 32.36170364 -178.82372178 28.9033801 -176 25 C-175.1646875 23.7625 -175.1646875 23.7625 -174.3125 22.5 C-162.18745204 9.39184005 -143.86138427 6.78606428 -126.92626953 6.0871582 C-115.18735063 5.79137741 -103.43030189 6.66983546 -91.71228027 7.32202148 C-86.85600624 7.59069423 -81.99902628 7.84617375 -77.14193726 8.09962463 C-74.57386237 8.23453294 -72.00598891 8.37335909 -69.43838501 8.51695251 C-45.92973683 9.77894416 -22.03076298 9.17948457 0 0 Z " fill="#FFFFFF" transform="translate(977,28)"/>
<path d="M0 0 C-6.85275151 14.77000811 -21.2600245 25.90688584 -35.875 32.375 C-62.80923625 41.95357015 -91.08928742 35.02184312 -118.23608398 30.06982422 C-127.88481386 28.31534685 -137.35961929 26.79773076 -147.1875 26.75 C-147.91146973 26.74605225 -148.63543945 26.74210449 -149.38134766 26.73803711 C-155.60157488 26.80403602 -161.21445826 27.86804305 -167.2421875 29.44140625 C-170 30 -170 30 -173 29 C-168.78690343 21.92199776 -163.14612465 16.25286597 -155 14 C-140.54668084 10.95215153 -126.8263203 12.30316262 -112.28042603 13.71090698 C-56.52961362 19.03037544 -56.52961362 19.03037544 -4.29296875 1.3515625 C-2 0 -2 0 0 0 Z " fill="#FFFFFF" transform="translate(965,52)"/>
<path d="M0 0 C6.27 0 12.54 0 19 0 C24.94 15.84 30.88 31.68 37 48 C41.38386234 36.6935143 41.38386234 36.6935143 45.7644043 25.38574219 C49.06626012 16.87396804 52.44196326 8.4086681 56 0 C61.61 0 67.22 0 73 0 C73 0.99 73 1.98 73 3 C70.69 3.33 68.38 3.66 66 4 C66.40827382 9.47693762 66.81723834 14.95382309 67.22680664 20.43066406 C67.36566229 22.28872325 67.50433847 24.14679587 67.64282227 26.00488281 C68.03329085 31.24308232 68.42722383 36.4809961 68.82684326 41.71850586 C68.98243137 43.76851772 69.13427632 45.81881286 69.28564453 47.86914062 C69.40915283 49.47305664 69.40915283 49.47305664 69.53515625 51.109375 C69.60226807 52.00108398 69.66937988 52.89279297 69.73852539 53.81152344 C69.94636251 56.17483474 69.94636251 56.17483474 71 59 C72.98 59.33 74.96 59.66 77 60 C77 61.32 77 62.64 77 64 C69.08 64 61.16 64 53 64 C53 62.68 53 61.36 53 60 C55.31 60 57.62 60 60 60 C59.59553454 54.37629394 59.18648377 48.75294723 58.77319336 43.12988281 C58.63326177 41.21721414 58.49458024 39.30445358 58.35717773 37.39160156 C58.15938181 34.64102425 57.95708234 31.89080948 57.75390625 29.140625 C57.6934462 28.28631897 57.63298615 27.43201294 57.57069397 26.55181885 C57.51070724 25.75129089 57.45072052 24.95076294 57.38891602 24.12597656 C57.31230492 23.07340668 57.31230492 23.07340668 57.23414612 21.99957275 C56.99232066 19.9344196 56.54720042 18.00400854 56 16 C55.78559769 16.58437836 55.57119537 17.16875671 55.35029602 17.77084351 C53.11726798 23.8459168 50.85840848 29.91091799 48.58422852 35.97070312 C47.7386759 38.23416744 46.89976547 40.50012452 46.06762695 42.76855469 C44.87102733 46.02695461 43.65090429 49.27567231 42.42578125 52.5234375 C42.05785965 53.54118256 41.68993805 54.55892761 41.31086731 55.60751343 C40.77087349 57.01874985 40.77087349 57.01874985 40.2199707 58.45849609 C39.91130569 59.28900482 39.60264069 60.11951355 39.28462219 60.97518921 C37.60431104 63.62368163 35.9431848 64.1073466 33 65 C32.68719589 64.18980156 32.68719589 64.18980156 32.36807251 63.36323547 C30.19463572 57.73396096 28.02077887 52.1048488 25.84667969 46.47583008 C25.03569979 44.3759367 24.22482647 42.27600215 23.4140625 40.17602539 C22.24767728 37.1550019 21.08090701 34.13412737 19.9140625 31.11328125 C19.55253082 30.17664139 19.19099915 29.24000153 18.81851196 28.27497864 C18.30820938 26.95417549 18.30820938 26.95417549 17.78759766 25.60668945 C17.49003571 24.83613724 17.19247375 24.06558502 16.88589478 23.27168274 C15.93834506 20.84189944 14.97183112 18.42016231 14 16 C13.51651802 20.37453401 13.03903926 24.74970469 12.5625 29.125 C12.42779297 30.34316406 12.29308594 31.56132813 12.15429688 32.81640625 C10.7296146 45.38223312 10.7296146 45.38223312 10 58 C11.49743119 59.49743119 12.98824239 59.33202693 15.0625 59.5625 C16.361875 59.706875 17.66125 59.85125 19 60 C19 61.32 19 62.64 19 64 C11.41 64 3.82 64 -4 64 C-4 62.68 -4 61.36 -4 60 C-0.535 59.505 -0.535 59.505 3 59 C3.86930332 56.39209005 4.23499226 54.41731684 4.48071289 51.71557617 C4.56072037 50.85425583 4.64072784 49.99293549 4.72315979 49.10551453 C4.80549362 48.17737442 4.88782745 47.24923431 4.97265625 46.29296875 C5.06002548 45.33481766 5.14739471 44.37666656 5.2374115 43.38948059 C5.42149037 41.36129215 5.6037811 39.33294074 5.78442383 37.30444336 C6.06052173 34.20967429 6.34329791 31.11556889 6.62695312 28.02148438 C6.80508837 26.04951534 6.98283538 24.07751118 7.16015625 22.10546875 C7.24451431 21.18340134 7.32887238 20.26133392 7.41578674 19.31132507 C8.00949706 12.66624327 8.00949706 12.66624327 8 6 C6.03177114 4.03177114 2.65191291 4.33751619 0 4 C0 2.68 0 1.36 0 0 Z " fill="#FFFBFB" transform="translate(214,17)"/>
<path d="M0 0 C25.68113096 6.85747931 49.40109116 10.37966584 74.71557617 -0.45605469 C75.54444336 -0.74996094 76.37331055 -1.04386719 77.22729492 -1.34667969 C78.21729492 -0.85167969 78.21729492 -0.85167969 79.22729492 -0.34667969 C62.92512619 15.55069479 45.88054544 23.00058077 23.39257812 22.95922852 C7.21558038 22.74114403 -6.34119069 17.51722085 -21.22119141 11.62670898 C-34.69013491 6.3310629 -46.77491507 1.65426745 -60.60864258 7.58300781 C-62.97655057 8.6965262 -62.97655057 8.6965262 -65.77270508 10.65332031 C-65.24598081 6.62212388 -64.1959815 4.51599906 -61.46020508 1.52832031 C-60.86594727 0.86574219 -60.27168945 0.20316406 -59.65942383 -0.47949219 C-44.4748234 -15.50690213 -17.68631168 -4.74154354 0 0 Z " fill="#FFFFFF" transform="translate(846.772705078125,93.3466796875)"/>
<path d="M0 0 C2.88421323 3.84561764 2.80582355 7.33619085 2.5 12 C0.74392684 19.28701227 -3.2309973 23.89272237 -9.5 28 C-10.16 28 -10.82 28 -11.5 28 C-8.38965118 34.00619082 -4.86661607 39.6844353 -1.125 45.3125 C-0.67922607 46.00601563 -0.23345215 46.69953125 0.22583008 47.4140625 C3.4231242 52.1431423 6.35262519 54.51572109 11.5 57 C11.5 57.99 11.5 58.98 11.5 60 C6.67838422 60.67042129 2.30460206 60.88492129 -2.5 60 C-6.21334988 57.04180194 -8.22503506 53.0919617 -10.5 49 C-11.83321445 46.71500288 -13.18859076 44.44795804 -14.57543945 42.19506836 C-15.51017404 40.67274055 -16.41751581 39.13317865 -17.29370117 37.57641602 C-19.66694555 33.51810197 -19.66694555 33.51810197 -23.625 31.29003906 C-26.07548513 30.93171549 -26.07548513 30.93171549 -29.5 31 C-29.995 28.525 -29.995 28.525 -30.5 26 C-29.365625 26.04125 -28.23125 26.0825 -27.0625 26.125 C-19.94587025 26.09976372 -13.70586181 25.20586181 -8.5 20 C-6.75720213 16.51440426 -6.92755715 12.80312605 -7.5 9 C-9.88023412 5.60996959 -11.77621129 4.31019516 -15.5625 2.6875 C-20.80401534 1.65599795 -20.80401534 1.65599795 -31.5 2 C-31.005 28.235 -31.005 28.235 -30.5 55 C-28.19 55.66 -25.88 56.32 -23.5 57 C-23.5 57.99 -23.5 58.98 -23.5 60 C-31.42 60 -39.34 60 -47.5 60 C-47.5 59.01 -47.5 58.02 -47.5 57 C-45.52 56.34 -43.54 55.68 -41.5 55 C-41.5 37.18 -41.5 19.36 -41.5 1 C-44.47 0.505 -44.47 0.505 -47.5 0 C-47.5 -1.32 -47.5 -2.64 -47.5 -4 C-43.75018589 -4.171025 -40.00012685 -4.33598736 -36.25 -4.5 C-35.20585938 -4.54769531 -34.16171875 -4.59539063 -33.0859375 -4.64453125 C-7.20362829 -5.76290264 -7.20362829 -5.76290264 0 0 Z " fill="#FFFBFB" transform="translate(138.5,21)"/>
<path d="M0 0 C2.81386827 5.15875849 3.04647846 10.03550373 1.42578125 15.69140625 C-0.83265633 20.71333286 -4.55780813 24.75824245 -9.4375 27.25 C-10.4584375 27.4975 -10.4584375 27.4975 -11.5 27.75 C-8.77448793 33.43664083 -5.77900176 38.71397756 -2.25 43.9375 C-1.81042969 44.62263672 -1.37085938 45.30777344 -0.91796875 46.01367188 C2.13465057 50.53172241 5.10255563 53.11866311 9.95214844 55.63793945 C10.46293945 56.00491943 10.97373047 56.37189941 11.5 56.75 C11.5 57.74 11.5 58.73 11.5 59.75 C-0.50133395 61.09827746 -0.50133395 61.09827746 -4.63671875 58.30859375 C-6.52731863 55.89613337 -7.99315115 53.42200863 -9.5 50.75 C-10.34855184 49.39408417 -11.20459934 48.0428424 -12.06640625 46.6953125 C-14.23745011 43.2913873 -16.36548344 39.86430281 -18.46606445 36.41650391 C-20.26733771 33.0052726 -20.26733771 33.0052726 -23.4453125 31.23828125 C-24.52425781 31.15126953 -24.52425781 31.15126953 -25.625 31.0625 C-26.90375 30.959375 -28.1825 30.85625 -29.5 30.75 C-29.995 28.275 -29.995 28.275 -30.5 25.75 C-29.365625 25.79125 -28.23125 25.8325 -27.0625 25.875 C-19.94587025 25.84976372 -13.70586181 24.95586181 -8.5 19.75 C-6.89686912 16.54373823 -7.15815178 13.23551129 -7.5 9.75 C-8.51895834 6.69312497 -9.43918711 5.32693332 -12.28125 3.78125 C-19.0525749 1.13160113 -23.75700438 1.75 -31.5 1.75 C-31.005 27.985 -31.005 27.985 -30.5 54.75 C-28.19 55.41 -25.88 56.07 -23.5 56.75 C-23.5 57.74 -23.5 58.73 -23.5 59.75 C-31.42 59.75 -39.34 59.75 -47.5 59.75 C-47.5 58.76 -47.5 57.77 -47.5 56.75 C-45.52 56.09 -43.54 55.43 -41.5 54.75 C-41.5 36.93 -41.5 19.11 -41.5 0.75 C-44.47 0.255 -44.47 0.255 -47.5 -0.25 C-47.5 -1.57 -47.5 -2.89 -47.5 -4.25 C-43.75018589 -4.421025 -40.00012685 -4.58598736 -36.25 -4.75 C-35.20585938 -4.79769531 -34.16171875 -4.84539063 -33.0859375 -4.89453125 C-6.70494519 -6.03445067 -6.70494519 -6.03445067 0 0 Z " fill="#FFFBFB" transform="translate(735.5,21.25)"/>
<path d="M0 0 C16.17 0 32.34 0 49 0 C49 4.62 49 9.24 49 14 C48.01 14 47.02 14 46 14 C45.566875 13.05125 45.13375 12.1025 44.6875 11.125 C43.20697799 7.79958063 43.20697799 7.79958063 40 6 C37.48497823 5.63303819 37.48497823 5.63303819 34.67578125 5.5859375 C33.74934814 5.55032715 32.82291504 5.5147168 31.8684082 5.47802734 C30.6949585 5.44402832 29.52150879 5.4100293 28.3125 5.375 C22.7128125 5.189375 22.7128125 5.189375 17 5 C16.67 12.59 16.34 20.18 16 28 C25.9 27.505 25.9 27.505 36 27 C36.33 25.02 36.66 23.04 37 21 C38.32 21 39.64 21 41 21 C41 27.27 41 33.54 41 40 C39.68 40 38.36 40 37 40 C36.505 37.03 36.505 37.03 36 34 C29.4 33.67 22.8 33.34 16 33 C16.33 41.58 16.66 50.16 17 59 C22.754375 58.87625 22.754375 58.87625 28.625 58.75 C29.82334473 58.73420898 31.02168945 58.71841797 32.25634766 58.70214844 C38.40020069 58.5061229 42.36836786 58.19350477 47 54 C48.38868516 51.89960669 48.38868516 51.89960669 49 50 C49.99 50 50.98 50 52 50 C51.88437394 51.39664108 51.757008 52.79231199 51.625 54.1875 C51.55539062 54.96480469 51.48578125 55.74210937 51.4140625 56.54296875 C51 59 51 59 49 64 C32.83 64 16.66 64 0 64 C0 63.01 0 62.02 0 61 C3.465 60.505 3.465 60.505 7 60 C6.67 41.85 6.34 23.7 6 5 C4.02 4.34 2.04 3.68 0 3 C0 2.01 0 1.02 0 0 Z " fill="#FFFBFB" transform="translate(630,17)"/>
<path d="M0 0 C6.93 0 13.86 0 21 0 C20.67 1.98 20.34 3.96 20 6 C20.54362386 8.07915054 20.54362386 8.07915054 21.65234375 9.8671875 C21.97968506 10.46128418 22.30702637 11.05538086 22.64428711 11.66748047 C23.07104736 12.39596191 23.49780762 13.12444336 23.9375 13.875 C25.9484375 17.401875 25.9484375 17.401875 28 21 C30.97 15.39 33.94 9.78 37 4 C34.525 3.505 34.525 3.505 32 3 C32 2.01 32 1.02 32 0 C38.93 0 45.86 0 53 0 C53 0.99 53 1.98 53 3 C52.39671875 3.15855469 51.7934375 3.31710938 51.171875 3.48046875 C49.97304688 3.83044922 49.97304688 3.83044922 48.75 4.1875 C47.96109375 4.40792969 47.1721875 4.62835937 46.359375 4.85546875 C41.04034231 7.43572798 38.38901313 13.43333904 35.625 18.4375 C35.05458984 19.40139648 35.05458984 19.40139648 34.47265625 20.38476562 C32.73450741 23.54357856 31.82475899 25.3087879 32.72827148 28.87255859 C34.89255124 34.19496666 37.6884596 39.1490948 40.4375 44.1875 C41.02337891 45.27998047 41.60925781 46.37246094 42.21289062 47.49804688 C43.06463867 49.0671582 43.06463867 49.0671582 43.93359375 50.66796875 C44.7078772 52.09532349 44.7078772 52.09532349 45.49780273 53.55151367 C48.59597222 58.60133356 51.2224574 59.58286691 57 61 C57 61.99 57 62.98 57 64 C49.74 64 42.48 64 35 64 C35.33 62.02 35.66 60.04 36 58 C35.27667895 55.45145265 35.27667895 55.45145265 33.9453125 53.07421875 C33.49542969 52.19572266 33.04554688 51.31722656 32.58203125 50.41210938 C32.10121094 49.51298828 31.62039063 48.61386719 31.125 47.6875 C30.65191406 46.76904297 30.17882812 45.85058594 29.69140625 44.90429688 C27.72575163 40.69054359 27.72575163 40.69054359 25 37 C21.04 44.59 17.08 52.18 13 60 C14.65 60.33 16.3 60.66 18 61 C18 61.99 18 62.98 18 64 C11.07 64 4.14 64 -3 64 C-3 63.01 -3 62.02 -3 61 C-2.39671875 60.84144531 -1.7934375 60.68289062 -1.171875 60.51953125 C0.02695312 60.16955078 0.02695312 60.16955078 1.25 59.8125 C2.03890625 59.59207031 2.8278125 59.37164062 3.640625 59.14453125 C9.70055822 56.20486166 12.65840246 48.66014903 15.8125 43 C16.32748047 42.11054687 16.84246094 41.22109375 17.37304688 40.3046875 C17.85451172 39.44101562 18.33597656 38.57734375 18.83203125 37.6875 C19.27264893 36.90761719 19.7132666 36.12773438 20.16723633 35.32421875 C21.49460339 31.61957657 20.51474172 29.12738483 18.92431641 25.64404297 C18.48780762 24.85143066 18.05129883 24.05881836 17.6015625 23.2421875 C17.12203125 22.36949219 16.6425 21.49679688 16.1484375 20.59765625 C15.39433594 19.24994141 15.39433594 19.24994141 14.625 17.875 C14.13 16.96878906 13.635 16.06257813 13.125 15.12890625 C9.47194843 8.53583189 7.49017837 5.16382931 0 3 C0 2.01 0 1.02 0 0 Z " fill="#FFFBFB" transform="translate(415,17)"/>
<path d="M0 0 C16.17 0 32.34 0 49 0 C49.495 6.435 49.495 6.435 50 13 C48.68 13.33 47.36 13.66 46 14 C45.566875 13.05125 45.13375 12.1025 44.6875 11.125 C43.20697799 7.79958063 43.20697799 7.79958063 40 6 C37.57954562 5.72456155 37.57954562 5.72456155 34.89453125 5.8046875 C33.91162109 5.81113281 32.92871094 5.81757813 31.91601562 5.82421875 C30.89185547 5.84097656 29.86769531 5.85773437 28.8125 5.875 C27.25885742 5.88853516 27.25885742 5.88853516 25.67382812 5.90234375 C23.11565315 5.9259214 20.55794252 5.9588297 18 6 C16.82530556 8.34938888 16.79965111 9.95073205 16.68359375 12.5703125 C16.64548584 13.37742676 16.60737793 14.18454102 16.56811523 15.01611328 C16.50346069 16.55501221 16.50346069 16.55501221 16.4375 18.125 C16.293125 21.38375 16.14875 24.6425 16 28 C22.93 28 29.86 28 37 28 C37 25.69 37 23.38 37 21 C38.32 21 39.64 21 41 21 C41 27.27 41 33.54 41 40 C39.68 40 38.36 40 37 40 C36.505 37.03 36.505 37.03 36 34 C29.4 33.67 22.8 33.34 16 33 C16.14033182 36.79194483 16.28700628 40.58345678 16.4375 44.375 C16.47681641 45.45523438 16.51613281 46.53546875 16.55664062 47.6484375 C16.59853516 48.6796875 16.64042969 49.7109375 16.68359375 50.7734375 C16.72025146 51.72653809 16.75690918 52.67963867 16.79467773 53.66162109 C16.85763465 56.02132349 16.85763465 56.02132349 18 58 C21.70806596 58.11674705 25.4156554 58.18743274 29.125 58.25 C30.17171875 58.28351563 31.2184375 58.31703125 32.296875 58.3515625 C38.52576727 58.43040924 42.30428502 58.25744825 47 54 C48.38868516 51.89960669 48.38868516 51.89960669 49 50 C50.32 50.33 51.64 50.66 53 51 C52.01 55.29 51.02 59.58 50 64 C33.5 64 17 64 0 64 C0 63.01 0 62.02 0 61 C3.465 60.505 3.465 60.505 7 60 C7 42.18 7 24.36 7 6 C4.69 5.01 2.38 4.02 0 3 C0 2.01 0 1.02 0 0 Z " fill="#FFFBFB" transform="translate(154,17)"/>
<path d="M0 0 C16.17 0 32.34 0 49 0 C49 4.62 49 9.24 49 14 C48.01 14 47.02 14 46 14 C45.566875 13.05125 45.13375 12.1025 44.6875 11.125 C43.20697799 7.79958063 43.20697799 7.79958063 40 6 C37.48497823 5.63303819 37.48497823 5.63303819 34.67578125 5.5859375 C33.74934814 5.55032715 32.82291504 5.5147168 31.8684082 5.47802734 C30.6949585 5.44402832 29.52150879 5.4100293 28.3125 5.375 C22.7128125 5.189375 22.7128125 5.189375 17 5 C16.67 12.59 16.34 20.18 16 28 C25.9 27.505 25.9 27.505 36 27 C36.33 25.02 36.66 23.04 37 21 C38.32 21 39.64 21 41 21 C41 27.27 41 33.54 41 40 C39.68 40 38.36 40 37 40 C36.505 37.03 36.505 37.03 36 34 C29.4 33.67 22.8 33.34 16 33 C16.33 41.58 16.66 50.16 17 59 C22.754375 58.87625 22.754375 58.87625 28.625 58.75 C29.82334473 58.73420898 31.02168945 58.71841797 32.25634766 58.70214844 C38.40020069 58.5061229 42.36836786 58.19350477 47 54 C48.38868516 51.89960669 48.38868516 51.89960669 49 50 C50.32 50.33 51.64 50.66 53 51 C52.01 55.29 51.02 59.58 50 64 C33.5 64 17 64 0 64 C0 63.01 0 62.02 0 61 C3.465 60.505 3.465 60.505 7 60 C7.07593983 52.5069832 7.12855332 45.01406529 7.16479492 37.52075195 C7.17990005 34.97058402 7.20038533 32.42044214 7.22631836 29.87036133 C7.26262504 26.20908181 7.27970915 22.54814515 7.29296875 18.88671875 C7.30845261 17.7428923 7.32393646 16.59906586 7.33988953 15.420578 C7.34011612 14.35970474 7.34034271 13.29883148 7.34057617 12.20581055 C7.35056892 10.80349434 7.35056892 10.80349434 7.36076355 9.37284851 C6.93211503 6.5535005 6.24949614 5.69552035 4 4 C1.89667109 3.28552357 1.89667109 3.28552357 0 3 C0 2.01 0 1.02 0 0 Z " fill="#FFFBFB" transform="translate(33,17)"/>
<path d="M0 0 C2.50472033 2.22698484 3.6619348 4.15000613 4.82177734 7.28100586 C5.14576508 8.1429808 5.46975281 9.00495575 5.80355835 9.89305115 C6.14424347 10.82424271 6.48492859 11.75543427 6.8359375 12.71484375 C7.19716705 13.68096085 7.55839661 14.64707794 7.93057251 15.64247131 C9.08646013 18.73799451 10.23118387 21.83749834 11.375 24.9375 C14.2316597 32.63191411 17.10191877 40.32108631 20 48 C20.39649246 49.05800812 20.39649246 49.05800812 20.80099487 50.13739014 C21.45332261 51.86397862 22.1259334 53.58286983 22.80078125 55.30078125 C23.14278564 56.18032471 23.48479004 57.05986816 23.8371582 57.96606445 C25.210118 60.36751901 26.30711106 61.13203895 28.8125 62.25 C29.864375 62.4975 30.91625 62.745 32 63 C32 63.99 32 64.98 32 66 C24.08 66 16.16 66 8 66 C8 65.01 8 64.02 8 63 C9.98 62.34 11.96 61.68 14 61 C13.566875 59.79601562 13.13375 58.59203125 12.6875 57.3515625 C12.12483503 55.77610058 11.56234403 54.20057651 11 52.625 C10.57074219 51.43390625 10.57074219 51.43390625 10.1328125 50.21875 C9.86210938 49.45820312 9.59140625 48.69765625 9.3125 47.9140625 C9.06113281 47.2123291 8.80976562 46.5105957 8.55078125 45.78759766 C8 44 8 44 8 42 C0.74 42.33 -6.52 42.66 -14 43 C-16.31 49.27 -18.62 55.54 -21 62 C-19.02 62.33 -17.04 62.66 -15 63 C-15 63.99 -15 64.98 -15 66 C-20.94 66 -26.88 66 -33 66 C-32.67 64.68 -32.34 63.36 -32 62 C-31.20158691 61.68329346 -30.40317383 61.36658691 -29.58056641 61.0402832 C-26.8711456 60.23906156 -26.8711456 60.23906156 -25.68896484 57.93823242 C-25.36621582 57.08592041 -25.0434668 56.2336084 -24.7109375 55.35546875 C-24.33219482 54.3819043 -23.95345215 53.40833984 -23.56323242 52.40527344 C-23.17111572 51.3434082 -22.77899902 50.28154297 -22.375 49.1875 C-21.95259033 48.0934082 -21.53018066 46.99931641 -21.0949707 45.87207031 C-18.94944992 40.28845167 -16.87806473 34.67819471 -14.81652832 29.06318665 C-13.84829164 26.43096916 -12.8715326 23.80193897 -11.89508057 21.17276001 C-11.19901618 19.28129374 -10.52097647 17.3832257 -9.84326172 15.48510742 C-9.1996167 13.73677612 -9.1996167 13.73677612 -8.54296875 11.953125 C-8.17196045 10.92348633 -7.80095215 9.89384766 -7.41870117 8.83300781 C-5.76499008 5.53070812 -3.71590618 3.47507468 -1 1 C-0.67 0.67 -0.34 0.34 0 0 Z M-4 14 C-5.33871641 17.45627381 -6.67005392 20.91534297 -8 24.375 C-8.57234375 25.85226563 -8.57234375 25.85226563 -9.15625 27.359375 C-9.5171875 28.30039062 -9.878125 29.24140625 -10.25 30.2109375 C-10.75273437 31.51490479 -10.75273437 31.51490479 -11.265625 32.84521484 C-12.10753032 34.93609786 -12.10753032 34.93609786 -12 37 C-6.39 37 -0.78 37 5 37 C4.12839601 31.77037608 2.91477319 27.56915045 1.0625 22.6875 C0.79759766 21.95982422 0.53269531 21.23214844 0.25976562 20.48242188 C-0.97720837 16.52067624 -0.97720837 16.52067624 -4 14 Z " fill="#FFFCFC" transform="translate(506,15)"/>
<path d="M0 0 C2.50472033 2.22698484 3.6619348 4.15000613 4.82177734 7.28100586 C5.14576508 8.1429808 5.46975281 9.00495575 5.80355835 9.89305115 C6.14424347 10.82424271 6.48492859 11.75543427 6.8359375 12.71484375 C7.19716705 13.68096085 7.55839661 14.64707794 7.93057251 15.64247131 C9.08646013 18.73799451 10.23118387 21.83749834 11.375 24.9375 C14.2316597 32.63191411 17.10191877 40.32108631 20 48 C20.39649246 49.05800812 20.39649246 49.05800812 20.80099487 50.13739014 C21.45332261 51.86397862 22.1259334 53.58286983 22.80078125 55.30078125 C23.14278564 56.18032471 23.48479004 57.05986816 23.8371582 57.96606445 C25.210118 60.36751901 26.30711106 61.13203895 28.8125 62.25 C29.864375 62.4975 30.91625 62.745 32 63 C32 63.99 32 64.98 32 66 C24.08 66 16.16 66 8 66 C8 65.01 8 64.02 8 63 C9.98 62.34 11.96 61.68 14 61 C13.566875 59.79601562 13.13375 58.59203125 12.6875 57.3515625 C12.12483503 55.77610058 11.56234403 54.20057651 11 52.625 C10.57074219 51.43390625 10.57074219 51.43390625 10.1328125 50.21875 C9.86210937 49.45820312 9.59140625 48.69765625 9.3125 47.9140625 C9.06113281 47.2123291 8.80976563 46.5105957 8.55078125 45.78759766 C8 44 8 44 8 42 C0.74 42.33 -6.52 42.66 -14 43 C-16.31 49.27 -18.62 55.54 -21 62 C-19.02 62.33 -17.04 62.66 -15 63 C-15 63.99 -15 64.98 -15 66 C-20.94 66 -26.88 66 -33 66 C-32.67 64.68 -32.34 63.36 -32 62 C-31.20158691 61.68329346 -30.40317383 61.36658691 -29.58056641 61.0402832 C-26.8711456 60.23906156 -26.8711456 60.23906156 -25.68896484 57.93823242 C-25.36621582 57.08592041 -25.0434668 56.2336084 -24.7109375 55.35546875 C-24.33219482 54.3819043 -23.95345215 53.40833984 -23.56323242 52.40527344 C-23.17111572 51.3434082 -22.77899902 50.28154297 -22.375 49.1875 C-21.95259033 48.0934082 -21.53018066 46.99931641 -21.0949707 45.87207031 C-18.94944992 40.28845167 -16.87806473 34.67819471 -14.81652832 29.06318665 C-13.84829164 26.43096916 -12.8715326 23.80193897 -11.89508057 21.17276001 C-11.19901618 19.28129374 -10.52097647 17.3832257 -9.84326172 15.48510742 C-9.1996167 13.73677612 -9.1996167 13.73677612 -8.54296875 11.953125 C-8.17196045 10.92348633 -7.80095215 9.89384766 -7.41870117 8.83300781 C-5.76499008 5.53070812 -3.71590618 3.47507468 -1 1 C-0.67 0.67 -0.34 0.34 0 0 Z M-4 14 C-5.33871641 17.45627381 -6.67005392 20.91534297 -8 24.375 C-8.57234375 25.85226563 -8.57234375 25.85226563 -9.15625 27.359375 C-9.5171875 28.30039062 -9.878125 29.24140625 -10.25 30.2109375 C-10.75273437 31.51490479 -10.75273437 31.51490479 -11.265625 32.84521484 C-12.10753032 34.93609786 -12.10753032 34.93609786 -12 37 C-6.39 37 -0.78 37 5 37 C4.10706752 31.60420846 4.10706752 31.60420846 2.37109375 26.6953125 C2.05849609 25.94765625 1.74589844 25.2 1.42382812 24.4296875 C0.9355957 23.28886719 0.9355957 23.28886719 0.4375 22.125 C-0.0565332 20.949375 -0.0565332 20.949375 -0.56054688 19.75 C-1.36796786 17.83091244 -2.18319769 15.9151135 -3 14 C-3.33 14 -3.66 14 -4 14 Z " fill="#FFFCFC" transform="translate(356,15)"/>
<path d="M0 0 C7.59 0 15.18 0 23 0 C23 1.32 23 2.64 23 4 C21.02 4 19.04 4 17 4 C22.2787209 19.48657853 28.05646717 34.75722109 34 50 C35.60583878 47.59124184 36.57628362 45.77213766 37.58813477 43.12695312 C37.88506729 42.35605347 38.18199982 41.58515381 38.4879303 40.79089355 C38.80257736 39.96271118 39.11722443 39.13452881 39.44140625 38.28125 C39.76914536 37.42696411 40.09688446 36.57267822 40.43455505 35.69250488 C41.48065858 32.96297823 42.52155238 30.23149652 43.5625 27.5 C44.26725456 25.66003229 44.97232896 23.82018704 45.67773438 21.98046875 C46.96743267 18.61203548 48.25682498 15.24349111 49.54125977 11.87304688 C49.79948013 11.19592651 50.0577005 10.51880615 50.32374573 9.82116699 C50.91601945 8.22616138 51.46196366 6.61410903 52 5 C50.02 4.67 48.04 4.34 46 4 C46 2.68 46 1.36 46 0 C51.94 0 57.88 0 64 0 C64 1.32 64 2.64 64 4 C63.06151718 4.22504211 62.12303436 4.45008423 61.15611267 4.6819458 C57.89850921 5.69561462 57.89850921 5.69561462 56.52833557 8.25018311 C56.18970993 9.18694885 55.85108429 10.1237146 55.50219727 11.08886719 C54.90611412 12.68127228 54.90611412 12.68127228 54.29798889 14.30584717 C53.68835548 16.03390594 53.68835548 16.03390594 53.06640625 17.796875 C52.62538071 18.97840149 52.18435516 20.15992798 51.72996521 21.3772583 C50.31887924 25.16051544 48.93698621 28.95335403 47.5625 32.75 C45.7559854 37.73373956 43.91846956 42.70482162 42.06640625 47.671875 C41.66200821 48.81581726 41.25761017 49.95975952 40.84095764 51.1383667 C38.30192831 57.94779791 35.98924062 61.8053727 30 66 C26.99581806 59.43995723 24.31051987 52.79209843 21.7421875 46.05078125 C21.35306183 45.03453171 20.96393616 44.01828217 20.5630188 42.97123718 C19.74675455 40.83795388 18.93165682 38.70422389 18.11767578 36.57006836 C16.87427077 33.31058838 15.62688225 30.0526541 14.37890625 26.79492188 C13.58309895 24.71363127 12.78751818 22.63225403 11.9921875 20.55078125 C11.62133026 19.58191483 11.25047302 18.6130484 10.86837769 17.61482239 C9.14960861 13.10414377 7.47438248 8.59821237 6 4 C4.02 4 2.04 4 0 4 C0 2.68 0 1.36 0 0 Z " fill="#FFFBFB" transform="translate(532,17)"/>
<path d="M0 0 C7.92 0 15.84 0 24 0 C24 1.32 24 2.64 24 4 C21.69 4 19.38 4 17 4 C16.99413376 4.82605743 16.98826752 5.65211487 16.98222351 6.50320435 C16.92423739 14.30108096 16.85212685 22.09867296 16.76428509 29.89627266 C16.71962285 33.90478619 16.68035782 37.91319905 16.65356445 41.921875 C16.62748975 45.79297374 16.5870585 49.66368427 16.53681374 53.53454208 C16.52017306 55.00880975 16.50864136 56.48314452 16.50238609 57.95749283 C16.492714 60.02822485 16.4646206 62.09797 16.43237305 64.16845703 C16.42126999 65.34538116 16.41016693 66.5223053 16.39872742 67.7348938 C15.81887555 72.48319515 14.41809556 75.88744806 10.625 78.86328125 C9.325625 79.58064453 9.325625 79.58064453 8 80.3125 C6.700625 81.04919922 6.700625 81.04919922 5.375 81.80078125 C3 83 3 83 0 84 C-0.66 82.35 -1.32 80.7 -2 79 C-1.51789062 78.55269531 -1.03578125 78.10539062 -0.5390625 77.64453125 C0.09257813 77.03996094 0.72421875 76.43539062 1.375 75.8125 C2.00148438 75.22082031 2.62796875 74.62914063 3.2734375 74.01953125 C6.79388382 69.90172413 7.24827521 65.94466587 7.22705078 60.64916992 C7.22689972 59.3882402 7.22674866 58.12731049 7.22659302 56.82817078 C7.21638136 55.46226848 7.2059494 54.09636781 7.1953125 52.73046875 C7.19157941 51.32514141 7.18873383 49.91981147 7.18673706 48.51448059 C7.17912389 44.82700332 7.15949553 41.13968518 7.1373291 37.45227051 C7.11682059 33.68499911 7.10772467 29.91770184 7.09765625 26.15039062 C7.07624725 18.76685477 7.04213954 11.38344974 7 4 C4.69 4 2.38 4 0 4 C0 2.68 0 1.36 0 0 Z " fill="#FFFBFB" transform="translate(3,17)"/>
<path d="M0 0 C7.92 0 15.84 0 24 0 C24 0.99 24 1.98 24 3 C21.69 3.66 19.38 4.32 17 5 C17 22.82 17 40.64 17 59 C19.31 59.66 21.62 60.32 24 61 C24 61.99 24 62.98 24 64 C16.08 64 8.16 64 0 64 C0 63.01 0 62.02 0 61 C3.465 60.505 3.465 60.505 7 60 C7 41.52 7 23.04 7 4 C4.69 3.67 2.38 3.34 0 3 C0 2.01 0 1.02 0 0 Z " fill="#FFFCFC" transform="translate(600,17)"/>
<path d="M0 0 C7.92 0 15.84 0 24 0 C24 0.99 24 1.98 24 3 C21.69 3.33 19.38 3.66 17 4 C17 22.48 17 40.96 17 60 C20.465 60.495 20.465 60.495 24 61 C24 61.99 24 62.98 24 64 C16.08 64 8.16 64 0 64 C0 63.01 0 62.02 0 61 C2.31 60.34 4.62 59.68 7 59 C7 41.18 7 23.36 7 5 C4.69 4.34 2.38 3.68 0 3 C0 2.01 0 1.02 0 0 Z " fill="#FFFCFC" transform="translate(295,17)"/>
</svg>
